PathFileType	4	(X/Y/Z)	C:/Users/opensim2020/Desktop/walking_exp_matlab/subject02_walking12_straight_03.trc	
DataRate	CameraRate	NumFrames	NumMarkers	Units	OrigDataRate	OrigDataStartFrame	OrigNumFrames	
100.00	100.00	4	42	mm	100.00	1557	127	
Frame#	Time	LFHD			RFHD			LBHD			RBHD			C7			T10			CLAV			STRN			RBAK			LSHO			LUPA			LELB			LFRM			LWRA			LWRB			LFIN			RSHO			RUPA			RELB			RFRM			RWRA			RWRB			RFIN			LASI			RASI			LPSI			RPSI			LTHI			LKNE			LTIB			LANK			LHEE			LTOE			RTHI			RKNE			RTIB			RANK			RHEE			RTOE			*39			*40			*41			
		X1	Y1	Z1	X2	Y2	Z2	X3	Y3	Z3	X4	Y4	Z4	X5	Y5	Z5	X6	Y6	Z6	X7	Y7	Z7	X8	Y8	Z8	X9	Y9	Z9	X10	Y10	Z10	X11	Y11	Z11	X12	Y12	Z12	X13	Y13	Z13	X14	Y14	Z14	X15	Y15	Z15	X16	Y16	Z16	X17	Y17	Z17	X18	Y18	Z18	X19	Y19	Z19	X20	Y20	Z20	X21	Y21	Z21	X22	Y22	Z22	X23	Y23	Z23	X24	Y24	Z24	X25	Y25	Z25	X26	Y26	Z26	X27	Y27	Z27	X28	Y28	Z28	X29	Y29	Z29	X30	Y30	Z30	X31	Y31	Z31	X32	Y32	Z32	X33	Y33	Z33	X34	Y34	Z34	X35	Y35	Z35	X36	Y36	Z36	X37	Y37	Z37	X38	Y38	Z38	X39	Y39	Z39	X40	Y40	Z40	X41	Y41	Z41	X42	Y42	Z42	

32	0.310	-1078.97473	-180.43448	1747.82446	-940.77765	-214.04695	1723.37976	-1120.89404	-303.26764	1670.55701	-987.76056	-348.91309	1644.54688	-1056.21106	-370.24612	1526.80469	-1060.98474	-420.76389	1250.83032	-1054.78186	-229.34840	1460.86353	-1043.48706	-176.21675	1289.31384	-1001.87909	-433.54807	1350.60571	-1228.11646	-283.97211	1506.56604	-1331.50220	-272.55771	1314.96436	-1364.02856	-252.46385	1178.99890	-1391.43628	-216.15523	1054.48816	-1369.62927	-140.08536	939.86865	-1406.93872	-182.88260	937.02985	-1418.98682	-148.29480	882.56738	-864.26520	-311.02332	1489.88062	-785.88757	-340.07840	1297.34924	-768.56238	-321.67685	1151.61584	-748.15900	-289.94617	1035.79797	-765.33191	-235.29860	910.89301	-734.41455	-283.54922	905.90033	-731.63580	-245.24731	843.78009	-1177.92542	-177.52135	996.99487	-924.10522	-202.96205	978.61804	-1117.74304	-394.43604	1036.71582	-1003.79053	-410.39346	1030.52661	-1238.64246	-241.67575	682.45026	-1214.77246	-279.57303	480.31445	-1222.39856	-341.47388	294.36807	-1187.54321	-346.04031	70.41418	-1140.33777	-386.38895	42.44330	-1189.70300	-189.06390	33.17403	-853.93768	-221.72652	674.35327	-873.44598	-171.02045	482.47479	-894.12042	-293.84912	348.17191	-948.22162	-399.62830	193.99800	-1017.03088	-439.12967	156.67645	-898.20728	-313.04568	72.42046	-1013.27472	-302.83105	1807.06580						 
33	0.320	-1078.42188	-168.26593	1747.61743	-940.27332	-202.27036	1722.72119	-1121.49500	-291.28027	1670.84058	-987.38068	-336.16913	1644.42334	-1056.53479	-358.53043	1526.72778	-1061.71875	-409.58890	1250.88379	-1055.14185	-217.83353	1460.61938	-1044.57239	-165.04741	1288.93958	-1002.79651	-423.12964	1351.02087	-1228.27466	-272.28818	1506.95801	-1332.68945	-257.50424	1316.51514	-1366.78979	-233.59155	1181.41272	-1394.47144	-192.30363	1058.40613	-1372.34729	-111.42684	946.99634	-1409.32837	-154.30031	942.18109	-1421.28857	-117.46057	889.15326	-864.47009	-299.28104	1488.94324	-786.71124	-331.73718	1296.60059	-769.21558	-315.09439	1151.23389	-748.13306	-285.83020	1034.81372	-764.55756	-234.61279	907.98248	-733.54742	-282.94864	904.86066	-730.31287	-246.39636	841.56366	-1179.93591	-168.32294	996.45660	-926.45197	-190.88104	978.96814	-1117.08252	-384.47720	1036.46387	-1002.81415	-399.47635	1030.91309	-1238.96448	-236.09218	681.75049	-1215.11597	-276.49097	480.03510	-1222.71631	-339.20990	294.46744	-1187.35046	-345.89017	70.35641	-1140.03137	-385.97040	42.05861	-1189.78516	-188.98814	33.11217	-853.59399	-205.84113	676.13324	-874.38153	-151.57664	484.53690	-894.36383	-268.15750	343.81775	-948.49542	-366.19028	184.34169	-1017.07788	-404.20959	144.97377	-898.71118	-272.54971	68.48260	-1012.72302	-290.55142	1806.74121						 
34	0.330	-1077.70630	-156.08441	1747.14868	-939.69427	-190.45094	1721.85315	-1120.77979	-278.95270	1670.59119	-987.70209	-324.75546	1644.03333	-1056.79285	-346.77975	1526.53101	-1062.16333	-398.35062	1250.79761	-1055.45300	-206.27493	1460.15076	-1045.51221	-153.88971	1288.29102	-1003.55402	-411.78262	1350.85205	-1228.37402	-260.51175	1507.27161	-1333.86841	-242.43291	1318.06274	-1368.96851	-214.95599	1183.67700	-1396.47314	-168.71008	1061.97693	-1374.87341	-83.09746	954.21381	-1411.37708	-125.90874	947.53229	-1423.47070	-87.03070	896.15564	-864.67566	-287.78824	1488.05908	-787.31635	-322.33279	1296.12524	-769.76624	-308.33179	1150.60059	-747.87518	-282.07281	1033.79333	-763.38458	-233.71121	905.69489	-732.60596	-282.20206	903.74231	-729.15485	-247.25204	839.49451	-1181.84814	-159.20435	995.51843	-928.67059	-178.96956	978.95636	-1116.35913	-374.55673	1036.09888	-1001.77545	-388.43417	1031.17542	-1239.37598	-230.30304	680.87689	-1215.24670	-273.23450	479.69489	-1222.80969	-336.88773	294.40344	-1187.22815	-345.65250	70.67162	-1139.79773	-385.85690	42.32911	-1189.81042	-188.64923	33.22811	-853.32727	-190.16624	677.87189	-875.24945	-132.97203	486.08630	-894.27802	-242.33200	339.03564	-948.28625	-331.81479	174.30441	-1016.66486	-368.03235	132.54831	-898.77423	-231.15810	64.86462	-1012.05402	-278.40082	1806.24744						 
35	0.340	-1076.86401	-143.89621	1746.53186	-938.97705	-178.65572	1720.88098	-1121.12488	-266.92142	1670.51880	-987.24432	-312.63290	1643.10010	-1057.10132	-334.98752	1526.12878	-1062.47668	-387.16177	1250.52869	-1055.58789	-194.67528	1459.49597	-1046.40088	-142.65802	1287.45935	-1004.10901	-399.99173	1350.47717	-1228.45923	-248.61177	1507.33789	-1334.91833	-227.52060	1319.40283	-1371.37976	-196.26694	1185.90564	-1398.54419	-145.38263	1065.99121	-1377.25427	-54.99308	962.18793	-1413.06226	-98.02071	953.21350	-1424.89856	-57.20576	903.20355	-864.87000	-276.64297	1486.87109	-788.20685	-313.39264	1295.34717	-770.18439	-301.79300	1150.01941	-747.44757	-277.91684	1032.54565	-762.01392	-232.22040	903.78680	-731.63867	-281.08438	902.87921	-727.79565	-248.13197	837.53363	-1183.69299	-149.78352	994.31543	-931.05597	-167.58478	978.47949	-1115.58472	-364.54260	1035.64783	-1000.81824	-377.23468	1031.20569	-1239.47681	-224.59676	680.26978	-1215.15796	-269.82596	479.25601	-1222.78894	-334.94836	294.68390	-1187.03784	-345.44119	70.82444	-1139.56213	-385.96716	42.83793	-1189.91089	-188.55193	33.16235	-853.17053	-174.74651	679.39380	-875.90784	-115.10838	487.57214	-894.40240	-216.51007	333.87201	-947.54340	-296.89133	164.24992	-1015.66040	-331.15549	119.92661	-898.37506	-189.31465	61.62452	-1011.21027	-266.26108	1805.66003						 
